<svg xmlns="http://www.w3.org/2000/svg" width="1920" height="1080" viewBox="0 0 1920 1080">
  <defs>
    <radialGradient id="glow" cx="50%" cy="60%" r="60%">
      <stop offset="0" stop-color="rgba(255,70,190,0.20)"/>
      <stop offset="1" stop-color="rgba(255,70,190,0)"/>
    </radialGradient>
  </defs>
  <rect width="1920" height="1080" fill="url(#glow)"/>
  <g opacity="0.30">
    <circle cx="0" cy="0" r="2" fill="rgba(255,255,255,0.35)"/>
<circle cx="191" cy="73" r="3" fill="rgba(255,255,255,0.35)"/>
<circle cx="382" cy="146" r="4" fill="rgba(255,255,255,0.35)"/>
<circle cx="573" cy="219" r="5" fill="rgba(255,255,255,0.35)"/>
<circle cx="764" cy="292" r="2" fill="rgba(255,255,255,0.35)"/>
<circle cx="955" cy="365" r="3" fill="rgba(255,255,255,0.35)"/>
<circle cx="1146" cy="438" r="4" fill="rgba(255,255,255,0.35)"/>
<circle cx="1337" cy="511" r="5" fill="rgba(255,255,255,0.35)"/>
<circle cx="1528" cy="584" r="2" fill="rgba(255,255,255,0.35)"/>
<circle cx="1719" cy="657" r="3" fill="rgba(255,255,255,0.35)"/>
<circle cx="1910" cy="730" r="4" fill="rgba(255,255,255,0.35)"/>
<circle cx="181" cy="803" r="5" fill="rgba(255,255,255,0.35)"/>
<circle cx="372" cy="876" r="2" fill="rgba(255,255,255,0.35)"/>
<circle cx="563" cy="949" r="3" fill="rgba(255,255,255,0.35)"/>
<circle cx="754" cy="1022" r="4" fill="rgba(255,255,255,0.35)"/>
<circle cx="945" cy="15" r="5" fill="rgba(255,255,255,0.35)"/>
<circle cx="1136" cy="88" r="2" fill="rgba(255,255,255,0.35)"/>
<circle cx="1327" cy="161" r="3" fill="rgba(255,255,255,0.35)"/>
<circle cx="1518" cy="234" r="4" fill="rgba(255,255,255,0.35)"/>
<circle cx="1709" cy="307" r="5" fill="rgba(255,255,255,0.35)"/>
<circle cx="1900" cy="380" r="2" fill="rgba(255,255,255,0.35)"/>
<circle cx="171" cy="453" r="3" fill="rgba(255,255,255,0.35)"/>
<circle cx="362" cy="526" r="4" fill="rgba(255,255,255,0.35)"/>
<circle cx="553" cy="599" r="5" fill="rgba(255,255,255,0.35)"/>
<circle cx="744" cy="672" r="2" fill="rgba(255,255,255,0.35)"/>
<circle cx="935" cy="745" r="3" fill="rgba(255,255,255,0.35)"/>
<circle cx="1126" cy="818" r="4" fill="rgba(255,255,255,0.35)"/>
<circle cx="1317" cy="891" r="5" fill="rgba(255,255,255,0.35)"/>
<circle cx="1508" cy="964" r="2" fill="rgba(255,255,255,0.35)"/>
<circle cx="1699" cy="1037" r="3" fill="rgba(255,255,255,0.35)"/>
<circle cx="1890" cy="30" r="4" fill="rgba(255,255,255,0.35)"/>
<circle cx="161" cy="103" r="5" fill="rgba(255,255,255,0.35)"/>
<circle cx="352" cy="176" r="2" fill="rgba(255,255,255,0.35)"/>
<circle cx="543" cy="249" r="3" fill="rgba(255,255,255,0.35)"/>
<circle cx="734" cy="322" r="4" fill="rgba(255,255,255,0.35)"/>
<circle cx="925" cy="395" r="5" fill="rgba(255,255,255,0.35)"/>
<circle cx="1116" cy="468" r="2" fill="rgba(255,255,255,0.35)"/>
<circle cx="1307" cy="541" r="3" fill="rgba(255,255,255,0.35)"/>
<circle cx="1498" cy="614" r="4" fill="rgba(255,255,255,0.35)"/>
<circle cx="1689" cy="687" r="5" fill="rgba(255,255,255,0.35)"/>
<circle cx="1880" cy="760" r="2" fill="rgba(255,255,255,0.35)"/>
<circle cx="151" cy="833" r="3" fill="rgba(255,255,255,0.35)"/>
<circle cx="342" cy="906" r="4" fill="rgba(255,255,255,0.35)"/>
<circle cx="533" cy="979" r="5" fill="rgba(255,255,255,0.35)"/>
<circle cx="724" cy="1052" r="2" fill="rgba(255,255,255,0.35)"/>
<circle cx="915" cy="45" r="3" fill="rgba(255,255,255,0.35)"/>
<circle cx="1106" cy="118" r="4" fill="rgba(255,255,255,0.35)"/>
<circle cx="1297" cy="191" r="5" fill="rgba(255,255,255,0.35)"/>
<circle cx="1488" cy="264" r="2" fill="rgba(255,255,255,0.35)"/>
<circle cx="1679" cy="337" r="3" fill="rgba(255,255,255,0.35)"/>
<circle cx="1870" cy="410" r="4" fill="rgba(255,255,255,0.35)"/>
<circle cx="141" cy="483" r="5" fill="rgba(255,255,255,0.35)"/>
<circle cx="332" cy="556" r="2" fill="rgba(255,255,255,0.35)"/>
<circle cx="523" cy="629" r="3" fill="rgba(255,255,255,0.35)"/>
<circle cx="714" cy="702" r="4" fill="rgba(255,255,255,0.35)"/>
<circle cx="905" cy="775" r="5" fill="rgba(255,255,255,0.35)"/>
<circle cx="1096" cy="848" r="2" fill="rgba(255,255,255,0.35)"/>
<circle cx="1287" cy="921" r="3" fill="rgba(255,255,255,0.35)"/>
<circle cx="1478" cy="994" r="4" fill="rgba(255,255,255,0.35)"/>
<circle cx="1669" cy="1067" r="5" fill="rgba(255,255,255,0.35)"/>
<circle cx="1860" cy="60" r="2" fill="rgba(255,255,255,0.35)"/>
<circle cx="131" cy="133" r="3" fill="rgba(255,255,255,0.35)"/>
<circle cx="322" cy="206" r="4" fill="rgba(255,255,255,0.35)"/>
<circle cx="513" cy="279" r="5" fill="rgba(255,255,255,0.35)"/>
<circle cx="704" cy="352" r="2" fill="rgba(255,255,255,0.35)"/>
<circle cx="895" cy="425" r="3" fill="rgba(255,255,255,0.35)"/>
<circle cx="1086" cy="498" r="4" fill="rgba(255,255,255,0.35)"/>
<circle cx="1277" cy="571" r="5" fill="rgba(255,255,255,0.35)"/>
<circle cx="1468" cy="644" r="2" fill="rgba(255,255,255,0.35)"/>
<circle cx="1659" cy="717" r="3" fill="rgba(255,255,255,0.35)"/>
<circle cx="1850" cy="790" r="4" fill="rgba(255,255,255,0.35)"/>
<circle cx="121" cy="863" r="5" fill="rgba(255,255,255,0.35)"/>
<circle cx="312" cy="936" r="2" fill="rgba(255,255,255,0.35)"/>
<circle cx="503" cy="1009" r="3" fill="rgba(255,255,255,0.35)"/>
<circle cx="694" cy="2" r="4" fill="rgba(255,255,255,0.35)"/>
<circle cx="885" cy="75" r="5" fill="rgba(255,255,255,0.35)"/>
<circle cx="1076" cy="148" r="2" fill="rgba(255,255,255,0.35)"/>
<circle cx="1267" cy="221" r="3" fill="rgba(255,255,255,0.35)"/>
<circle cx="1458" cy="294" r="4" fill="rgba(255,255,255,0.35)"/>
<circle cx="1649" cy="367" r="5" fill="rgba(255,255,255,0.35)"/>
<circle cx="1840" cy="440" r="2" fill="rgba(255,255,255,0.35)"/>
<circle cx="111" cy="513" r="3" fill="rgba(255,255,255,0.35)"/>
<circle cx="302" cy="586" r="4" fill="rgba(255,255,255,0.35)"/>
<circle cx="493" cy="659" r="5" fill="rgba(255,255,255,0.35)"/>
<circle cx="684" cy="732" r="2" fill="rgba(255,255,255,0.35)"/>
<circle cx="875" cy="805" r="3" fill="rgba(255,255,255,0.35)"/>
<circle cx="1066" cy="878" r="4" fill="rgba(255,255,255,0.35)"/>
<circle cx="1257" cy="951" r="5" fill="rgba(255,255,255,0.35)"/>
<circle cx="1448" cy="1024" r="2" fill="rgba(255,255,255,0.35)"/>
<circle cx="1639" cy="17" r="3" fill="rgba(255,255,255,0.35)"/>
<circle cx="1830" cy="90" r="4" fill="rgba(255,255,255,0.35)"/>
<circle cx="101" cy="163" r="5" fill="rgba(255,255,255,0.35)"/>
<circle cx="292" cy="236" r="2" fill="rgba(255,255,255,0.35)"/>
<circle cx="483" cy="309" r="3" fill="rgba(255,255,255,0.35)"/>
<circle cx="674" cy="382" r="4" fill="rgba(255,255,255,0.35)"/>
<circle cx="865" cy="455" r="5" fill="rgba(255,255,255,0.35)"/>
<circle cx="1056" cy="528" r="2" fill="rgba(255,255,255,0.35)"/>
<circle cx="1247" cy="601" r="3" fill="rgba(255,255,255,0.35)"/>
<circle cx="1438" cy="674" r="4" fill="rgba(255,255,255,0.35)"/>
<circle cx="1629" cy="747" r="5" fill="rgba(255,255,255,0.35)"/>
<circle cx="1820" cy="820" r="2" fill="rgba(255,255,255,0.35)"/>
<circle cx="91" cy="893" r="3" fill="rgba(255,255,255,0.35)"/>
<circle cx="282" cy="966" r="4" fill="rgba(255,255,255,0.35)"/>
<circle cx="473" cy="1039" r="5" fill="rgba(255,255,255,0.35)"/>
<circle cx="664" cy="32" r="2" fill="rgba(255,255,255,0.35)"/>
<circle cx="855" cy="105" r="3" fill="rgba(255,255,255,0.35)"/>
<circle cx="1046" cy="178" r="4" fill="rgba(255,255,255,0.35)"/>
<circle cx="1237" cy="251" r="5" fill="rgba(255,255,255,0.35)"/>
<circle cx="1428" cy="324" r="2" fill="rgba(255,255,255,0.35)"/>
<circle cx="1619" cy="397" r="3" fill="rgba(255,255,255,0.35)"/>
<circle cx="1810" cy="470" r="4" fill="rgba(255,255,255,0.35)"/>
<circle cx="81" cy="543" r="5" fill="rgba(255,255,255,0.35)"/>
<circle cx="272" cy="616" r="2" fill="rgba(255,255,255,0.35)"/>
<circle cx="463" cy="689" r="3" fill="rgba(255,255,255,0.35)"/>
<circle cx="654" cy="762" r="4" fill="rgba(255,255,255,0.35)"/>
<circle cx="845" cy="835" r="5" fill="rgba(255,255,255,0.35)"/>
<circle cx="1036" cy="908" r="2" fill="rgba(255,255,255,0.35)"/>
<circle cx="1227" cy="981" r="3" fill="rgba(255,255,255,0.35)"/>
<circle cx="1418" cy="1054" r="4" fill="rgba(255,255,255,0.35)"/>
<circle cx="1609" cy="47" r="5" fill="rgba(255,255,255,0.35)"/>
  </g>
  <g opacity="0.65">
    <rect x="48" y="930" width="560" height="92" rx="18" fill="rgba(0,0,0,0.35)" stroke="rgba(255,255,255,0.15)"/>
    <text x="78" y="988" font-family="system-ui,Segoe UI,Arial" font-size="30" fill="rgba(255,255,255,0.75)">mid.svg overlay — Rooftop Overlook</text>
  </g>
</svg>
