<svg xmlns="http://www.w3.org/2000/svg" viewBox="0 0 32 32" fill="none" aria-hidden="true">
  <defs>
    <linearGradient id="cupid" x1="0%" y1="0%" x2="100%" y2="100%">
      <stop offset="0%" stop-color="#ff46be"/>
      <stop offset="100%" stop-color="#c2185b"/>
    </linearGradient>
  </defs>
  <!-- Heart -->
  <path fill="url(#cupid)" d="M16 27.2c-.3 0-.6-.1-.9-.3C13.2 25.4 5 17.8 5 11.4 5 8 7.6 5.2 10.2 5.2c2 0 3.8 1 4.8 2.6.3.5.3 1.1 0 1.6s-.9.6-1.5.4c-.6-.5-1.4-.8-2.2-.8-1.9 0-3.4 1.5-3.4 3.4 0 5.2 6.6 11.2 8.1 12.5 1.5-1.3 8.1-7.3 8.1-12.5 0-1.9-1.5-3.4-3.4-3.4-.8 0-1.6.3-2.2.8-.5.2-1.1.1-1.5-.4s-.3-1.1 0-1.6c1-1.6 2.8-2.6 4.8-2.6 2.6 0 5.2 2.8 5.2 6.2 0 6.4-8.2 14-9.9 15.5-.3.2-.6.3-.9.3z"/>
  <!-- Cupid arrow diagonal (top-right to bottom-left) -->
  <path stroke="url(#cupid)" stroke-width="2" stroke-linecap="round" stroke-linejoin="round" fill="none" d="M22 6L10 26M19 6l-3 3 5 5 3-3M10 26l3-3"/>
</svg>
