<svg xmlns="http://www.w3.org/2000/svg" viewBox="0 0 128 128" fill="none" aria-hidden="true">
  <defs>
    <linearGradient id="cupidLg" x1="0%" y1="0%" x2="100%" y2="100%">
      <stop offset="0%" stop-color="#ff46be"/>
      <stop offset="100%" stop-color="#c2185b"/>
    </linearGradient>
  </defs>
  <!-- Heart -->
  <path fill="url(#cupidLg)" d="M64 108.8c-1.2 0-2.4-.4-3.6-1.2C52.8 101.6 20 71.2 20 45.6 20 32 30.4 20.8 40.8 20.8c8 0 15.2 4 19.2 10.4 1.2 2 1.2 4.4 0 6.4s-3.6 2.4-6 1.6c-2.4-2-5.6-3.2-8.8-3.2-7.6 0-13.6 6-13.6 13.6 0 20.8 26.4 44.8 32.4 50 6-5.2 32.4-29.2 32.4-50 0-7.6-6-13.6-13.6-13.6-3.2 0-6.4 1.2-8.8 3.2-2.4.8-4.4.4-6-1.6s-1.2-4.4 0-6.4c4-6.4 11.2-10.4 19.2-10.4 10.4 0 20.8 11.2 20.8 24.8 0 25.6-32.8 56-39.6 61.2-1.2.8-2.4 1.2-3.6 1.2z"/>
  <!-- Cupid arrow -->
  <path stroke="url(#cupidLg)" stroke-width="8" stroke-linecap="round" stroke-linejoin="round" fill="none" d="M88 24L40 104M76 24l-12 12 20 20 12-12M40 104l12-12"/>
</svg>
